<svg width="96" height="96" viewBox="0 0 96 96" xmlns="http://www.w3.org/2000/svg">
  <defs>
    <linearGradient id="awsCloudGradient" x1="0%" y1="0%" x2="100%" y2="100%">
      <stop offset="0%" stop-color="#0F172A" />
      <stop offset="100%" stop-color="#38BDF8" />
    </linearGradient>
    <linearGradient id="awsCloudBanner" x1="0%" y1="0%" x2="100%" y2="0%">
      <stop offset="0%" stop-color="#E0F2FE" />
      <stop offset="100%" stop-color="#BAE6FD" />
    </linearGradient>
  </defs>
  <rect x="8" y="8" width="80" height="80" rx="16" fill="url(#awsCloudGradient)" />
  <path d="M32 56C26 56 22 52 22 46C22 40 26 36 32 36C34 30 40 26 46 26C54 26 60 32 60 40C66 40 72 44 72 50C72 56 66 60 60 60H32Z" fill="#E0F2FE" opacity="0.9" />
  <rect x="16" y="62" width="64" height="18" rx="9" fill="url(#awsCloudBanner)" />
  <text x="48" y="74" text-anchor="middle" font-size="11" font-family="'Segoe UI', sans-serif" fill="#0F172A" font-weight="700">CLOUD</text>
</svg>
