<svg width="220" height="260" viewBox="0 0 220 260" xmlns="http://www.w3.org/2000/svg" role="img" aria-labelledby="title desc">
  <title id="title">Microsoft Certified Azure AI Engineer Associate badge</title>
  <desc id="desc">Shield shaped badge with Microsoft Certified heading and Azure AI Engineer Associate ribbon.</desc>
  <defs>
    <linearGradient id="azureShield" x1="0%" y1="0%" x2="0%" y2="100%">
      <stop offset="0%" stop-color="#1B2C58" />
      <stop offset="55%" stop-color="#1E4AA8" />
      <stop offset="100%" stop-color="#2563EB" />
    </linearGradient>
    <linearGradient id="azureBanner" x1="0%" y1="0%" x2="100%" y2="0%">
      <stop offset="0%" stop-color="#F8FAFC" />
      <stop offset="100%" stop-color="#E2E8F0" />
    </linearGradient>
    <filter id="shadow" x="-15%" y="-10%" width="130%" height="130%" filterUnits="objectBoundingBox">
      <feDropShadow dx="0" dy="18" stdDeviation="14" flood-color="#1E3A8A" flood-opacity="0.35" />
    </filter>
  </defs>
  <g filter="url(#shadow)">
    <path
      d="M110 12L194 60V132C194 189 158 231 110 248C62 231 26 189 26 132V60L110 12Z"
      fill="url(#azureShield)"
      stroke="#93C5FD"
      stroke-width="4"
    />
    <path d="M42 66H178V116H42V66Z" fill="#1E293B" />
    <text x="110" y="98" text-anchor="middle" font-family="'Segoe UI', 'Helvetica Neue', Arial, sans-serif" font-size="20" fill="#F8FAFC" font-weight="700" letter-spacing="0.12em">
      MICROSOFT
    </text>
    <text x="110" y="122" text-anchor="middle" font-family="'Segoe UI', 'Helvetica Neue', Arial, sans-serif" font-size="18" fill="#E2E8F0" font-weight="600" letter-spacing="0.12em">
      CERTIFIED
    </text>
    <path d="M38 150H182L164 192H56L38 150Z" fill="url(#azureBanner)" />
    <text x="110" y="178" text-anchor="middle" font-family="'Segoe UI', 'Helvetica Neue', Arial, sans-serif" font-size="18" fill="#0F172A" font-weight="700">
      AZURE AI ENGINEER
    </text>
    <path d="M54 200H166L154 230H66L54 200Z" fill="#1F2937" opacity="0.85" />
    <text x="110" y="222" text-anchor="middle" font-family="'Segoe UI', 'Helvetica Neue', Arial, sans-serif" font-size="16" fill="#F8FAFC" font-weight="600">
      ASSOCIATE
    </text>
  </g>
</svg>
