<svg xmlns="http://www.w3.org/2000/svg" viewBox="0 0 512 512" role="img" aria-labelledby="title desc">
  <title id="title">AWS Certified DevOps Engineer Professional badge</title>
  <desc id="desc">Hexagon-shaped AWS certification badge with DevOps Engineer Professional text.</desc>
  <defs>
    <linearGradient id="doOuter" x1="0%" y1="0%" x2="100%" y2="100%">
      <stop offset="0%" stop-color="#D8F2F6" />
      <stop offset="100%" stop-color="#B5E5EC" />
    </linearGradient>
    <linearGradient id="doInner" x1="0%" y1="0%" x2="100%" y2="100%">
      <stop offset="0%" stop-color="#027C92" />
      <stop offset="100%" stop-color="#015D77" />
    </linearGradient>
    <linearGradient id="doBanner" x1="0%" y1="0%" x2="0%" y2="100%">
      <stop offset="0%" stop-color="#03A5B5" />
      <stop offset="100%" stop-color="#02718A" />
    </linearGradient>
  </defs>
  <path fill="url(#doOuter)" d="M256 28l197 114v228L256 484 59 370V142z" stroke="#B5DCE2" stroke-width="12" />
  <path fill="url(#doInner)" d="M256 72l159 92v184L256 440 97 348V164z" />
  <path fill="#FF9900" d="M353 128l-17 29-16-9 17-29-30-17 9-16 30 17 17-29 16 9-17 29 30 17-9 16z" />
  <text x="140" y="196" font-family="'Amazon Ember', 'Segoe UI', Arial, sans-serif" font-size="60" font-weight="700" fill="#FFFFFF">aws</text>
  <text x="323" y="196" font-family="'Amazon Ember', 'Segoe UI', Arial, sans-serif" font-size="36" font-weight="700" fill="#FF9900">certified</text>
  <text x="256" y="310" font-family="'Amazon Ember', 'Segoe UI', Arial, sans-serif" font-size="46" font-weight="700" fill="#FFFFFF" text-anchor="middle">DevOps</text>
  <text x="256" y="352" font-family="'Amazon Ember', 'Segoe UI', Arial, sans-serif" font-size="40" font-weight="700" fill="#FFFFFF" text-anchor="middle">Engineer</text>
  <rect x="126" y="366" width="260" height="86" rx="38" fill="url(#doBanner)" />
  <text x="256" y="420" font-family="'Amazon Ember', 'Segoe UI', Arial, sans-serif" font-size="36" font-weight="600" fill="#FFFFFF" letter-spacing="4" text-anchor="middle">PROFESSIONAL</text>
</svg>
