<svg xmlns="http://www.w3.org/2000/svg" viewBox="0 0 512 512" role="img" aria-labelledby="title desc">
  <title id="title">Microsoft Certified Azure AI Engineer Associate badge</title>
  <desc id="desc">Shield shaped Microsoft certification badge with Azure AI Engineer Associate text.</desc>
  <defs>
    <linearGradient id="shieldGradient" x1="0%" y1="0%" x2="0%" y2="100%">
      <stop offset="0%" stop-color="#0D2A68" />
      <stop offset="50%" stop-color="#11428C" />
      <stop offset="100%" stop-color="#1B64B7" />
    </linearGradient>
    <linearGradient id="innerShield" x1="0%" y1="0%" x2="0%" y2="100%">
      <stop offset="0%" stop-color="#0C1F4D" />
      <stop offset="100%" stop-color="#123A82" />
    </linearGradient>
  </defs>
  <path fill="#0A1633" d="M256 28c-56.2 0-110.1 14-160.2 41.6L64 110.4V232c0 124.3 74.2 240.8 192 300 117.8-59.2 192-175.7 192-300V110.4l-31.8-40.8C366.1 42 312.2 28 256 28z" />
  <path fill="url(#shieldGradient)" d="M256 52c-50.4 0-98.6 13-143.6 38.5L96 117.6V232c0 108.6 63.8 209.6 160 262.8 96.2-53.2 160-154.2 160-262.8V117.6l-16.4-27.1C354.6 65 306.4 52 256 52z" />
  <path fill="url(#innerShield)" d="M256 80c-44.6 0-87.1 11.5-126.8 33.8L128 129v97c0 95.7 54.9 185.2 140.5 232.8C354.1 411.2 409 321.7 409 226v-97l-1.2-15.2C342.1 91.5 300.6 80 256 80z" />
  <rect x="86" y="138" width="340" height="118" rx="52" fill="#F4F5F7" stroke="#BFC5D2" stroke-width="10" />
  <rect x="108" y="158" width="296" height="78" rx="36" fill="#ffffff" />
  <text x="256" y="120" font-family="'Segoe UI', 'Helvetica Neue', Arial, sans-serif" font-size="36" font-weight="600" fill="#FFFFFF" letter-spacing="4" text-anchor="middle">Microsoft</text>
  <text x="256" y="170" font-family="'Segoe UI', 'Helvetica Neue', Arial, sans-serif" font-size="24" font-weight="600" fill="#2A2F36" letter-spacing="3" text-anchor="middle">CERTIFIED</text>
  <text x="256" y="212" font-family="'Segoe UI', 'Helvetica Neue', Arial, sans-serif" font-size="30" font-weight="700" fill="#0C1F4D" text-anchor="middle">AZURE AI</text>
  <text x="256" y="250" font-family="'Segoe UI', 'Helvetica Neue', Arial, sans-serif" font-size="30" font-weight="700" fill="#0C1F4D" text-anchor="middle">ENGINEER</text>
  <rect x="146" y="288" width="220" height="72" rx="36" fill="#0C52AA" />
  <text x="256" y="334" font-family="'Segoe UI', 'Helvetica Neue', Arial, sans-serif" font-size="30" font-weight="700" fill="#FFFFFF" letter-spacing="4" text-anchor="middle">ASSOCIATE</text>
  <g fill="#ffffff" transform="translate(196 360)">
    <polygon points="60 0 68.6 26.4 96 26.4 73.7 42.8 82.3 69.2 60 52.8 37.7 69.2 46.3 42.8 24 26.4 51.4 26.4" />
    <polygon points="-4 0 4.6 26.4 32 26.4 9.7 42.8 18.3 69.2 -4 52.8 -26.3 69.2 -17.7 42.8 -40 26.4 -12.6 26.4" />
  </g>
</svg>
